<svg width="264" height="67" viewBox="0 0 264 67" fill="none" xmlns="http://www.w3.org/2000/svg">
<path d="M91.1003 24.018C91.203 23.9975 91.3366 23.9872 91.5009 23.9872C92.1171 23.9872 92.5998 24.1721 92.949 24.5418C93.2982 24.891 93.4728 25.3737 93.4728 25.99C93.4728 27.0581 92.9182 27.7051 91.809 27.9311C90.8847 28.116 89.1592 28.2084 86.6326 28.2084H85.6467C84.5169 28.2084 83.4385 28.1776 82.4114 28.116C81.4049 28.0543 80.1622 27.9311 78.6832 27.7462C77.7794 27.623 77.3275 27.0067 77.3275 25.8975C77.3275 25.3634 77.4302 24.9218 77.6356 24.5726C77.841 24.2029 78.1594 23.9975 78.5908 23.9564H78.8989C79.1454 22.2926 79.2481 20.6903 79.207 19.1498H78.9913C78.4984 19.1498 78.1286 18.9854 77.8821 18.6568C77.6562 18.3076 77.5432 17.794 77.5432 17.1162C77.5432 16.541 77.6562 16.0686 77.8821 15.6989C78.1286 15.3291 78.4881 15.1442 78.9605 15.1442H79.207C79.2276 14.3842 79.2378 12.9361 79.2378 10.7998C78.5394 10.5122 78.1902 9.9268 78.1902 9.04354C78.1902 8.38622 78.3648 7.91377 78.714 7.6262C79.0632 7.31808 79.6076 7.12294 80.3471 7.04078C81.3536 6.93807 83.1817 6.88672 85.8315 6.88672C88.3992 6.88672 90.3609 6.96888 91.7166 7.13321C92.3328 7.19484 92.8052 7.37971 93.1339 7.68782C93.4831 7.9754 93.6577 8.4273 93.6577 9.04354C93.6577 9.65977 93.5036 10.163 93.1955 10.5533C92.8874 10.923 92.4663 11.0874 91.9322 11.0463C90.0425 10.882 88.3786 10.7998 86.9408 10.7998C86.2834 10.7998 85.4413 10.8203 84.4142 10.8614L83.6131 10.8922L83.7055 15.2059H84.4142C85.4413 15.2059 86.6943 15.2264 88.1732 15.2675L90.1452 15.3291C90.9463 15.3291 91.3468 15.9762 91.3468 17.2703C91.3468 17.8865 91.2236 18.3692 90.9771 18.7184C90.7511 19.0676 90.4225 19.2422 89.9911 19.2422C89.3749 19.2422 88.8511 19.2319 88.4197 19.2114L84.4142 19.1806H83.7363C83.6953 21.0293 83.572 22.6931 83.3666 24.1721C84.1472 24.2542 85.1229 24.2953 86.2937 24.2953C87.9986 24.2953 89.6008 24.2029 91.1003 24.018Z" fill="#E2E7E9"/>
<path d="M121.692 28.5165C120.172 28.5165 118.806 28.1981 117.594 27.5613C116.403 26.9246 115.468 26.031 114.79 24.8807C114.133 23.7304 113.804 22.4055 113.804 20.906C113.804 19.3654 114.154 17.9686 114.852 16.7156C115.55 15.4421 116.516 14.4458 117.748 13.7269C119.001 12.9874 120.408 12.6177 121.97 12.6177C123.633 12.6177 125.112 13.0182 126.406 13.8193C127.721 14.6204 128.625 15.6578 129.118 16.9313C129.282 17.3216 129.364 17.6605 129.364 17.9481C129.364 18.626 128.892 19.0779 127.947 19.3038C127.68 19.3654 127.433 19.3963 127.208 19.3963C126.797 19.3963 126.458 19.2935 126.191 19.0881C125.944 18.8622 125.667 18.5027 125.359 18.0097C124.969 17.414 124.527 16.9416 124.034 16.5924C123.541 16.2227 122.935 16.0378 122.216 16.0378C121.066 16.0378 120.121 16.5102 119.381 17.4551C118.642 18.3795 118.272 19.5503 118.272 20.9676C118.272 22.2617 118.601 23.2785 119.258 24.018C119.936 24.7369 120.912 25.0964 122.185 25.0964C123.397 25.0964 124.291 24.7883 124.866 24.1721C125.462 23.5353 125.759 22.7958 125.759 21.9536C125.759 21.625 125.924 21.3271 126.252 21.0601C126.602 20.7725 127.064 20.6287 127.639 20.6287C128.337 20.6287 128.861 20.7622 129.21 21.0293C129.58 21.2963 129.765 21.7688 129.765 22.4466C129.765 23.4737 129.498 24.4494 128.964 25.3737C128.43 26.2981 127.557 27.0581 126.345 27.6538C125.153 28.2289 123.603 28.5165 121.692 28.5165Z" fill="#E2E7E9"/>
<path d="M147.44 25.0656C147.83 25.1272 148.128 25.271 148.334 25.497C148.56 25.7229 148.673 26.1235 148.673 26.6986C148.673 27.1916 148.539 27.6127 148.272 27.9619C148.026 28.3111 147.687 28.4857 147.255 28.4857C146.372 28.4857 145.694 28.383 145.222 28.1776C144.749 27.9516 144.318 27.5511 143.928 26.9759C143.476 27.6538 142.86 28.1365 142.079 28.4241C141.298 28.6911 140.384 28.8246 139.337 28.8246C137.016 28.8246 135.249 28.157 134.037 26.8219C132.825 25.4867 132.219 23.6277 132.219 21.245C132.219 19.6838 132.538 18.2973 133.174 17.0854C133.811 15.8735 134.694 14.9286 135.824 14.2507C136.974 13.5729 138.289 13.2339 139.768 13.2339C140.508 13.2339 141.196 13.3777 141.832 13.6653C142.469 13.9529 142.952 14.3329 143.281 14.8053L143.342 14.4048C143.383 14.1172 143.548 13.881 143.835 13.6961C144.123 13.4907 144.575 13.388 145.191 13.388C145.848 13.388 146.331 13.5215 146.639 13.7885C146.947 14.0556 147.101 14.3945 147.101 14.8053C147.101 14.9491 147.091 15.0621 147.07 15.1442C146.947 15.8426 146.824 17.0135 146.701 18.6568C146.639 19.4168 146.608 20.3925 146.608 21.5839V23.1245C146.608 23.7202 146.66 24.1823 146.762 24.511C146.865 24.8191 147.091 25.004 147.44 25.0656ZM142.295 22.9396C142.315 22.0974 142.325 20.7931 142.325 19.0265C142.325 18.3281 142.089 17.7632 141.617 17.3319C141.165 16.88 140.579 16.654 139.861 16.654C138.936 16.654 138.176 17.0854 137.58 17.9481C136.985 18.7903 136.687 19.879 136.687 21.2141C136.687 22.4877 136.954 23.5045 137.488 24.2645C138.022 25.0245 138.741 25.4045 139.645 25.4045C140.487 25.4045 141.134 25.1991 141.586 24.7883C142.038 24.3569 142.274 23.7407 142.295 22.9396Z" fill="#E2E7E9"/>
<path d="M160.358 12.7409C162.166 12.7409 163.563 13.3777 164.549 14.6513C165.555 15.9043 166.058 17.7632 166.058 20.2282L166.028 27.1916C166.028 27.623 165.812 27.9516 165.381 28.1776C164.97 28.4035 164.456 28.5165 163.84 28.5165C163.244 28.5165 162.71 28.4138 162.238 28.2084C161.786 28.003 161.56 27.7154 161.56 27.3457L161.591 20.1974C161.591 18.6979 161.426 17.6503 161.098 17.0546C160.769 16.4589 160.256 16.161 159.557 16.161C158.961 16.161 158.489 16.4281 158.14 16.9621C157.791 17.4962 157.493 18.5335 157.246 20.0741C157.102 20.9368 157.031 21.892 157.031 22.9396L157.061 26.9143C157.061 27.4484 156.856 27.8592 156.445 28.1468C156.055 28.4138 155.521 28.5473 154.843 28.5473C154.145 28.5473 153.59 28.4035 153.179 28.116C152.789 27.8284 152.594 27.4278 152.594 26.9143C152.594 22.6418 152.532 19.3141 152.409 16.9313C152.388 16.6848 152.327 16.4589 152.224 16.2535C152.142 16.0275 152.039 15.8221 151.916 15.6372C151.793 15.4524 151.7 15.3086 151.639 15.2059C151.515 14.9799 151.454 14.754 151.454 14.528C151.454 14.0966 151.7 13.6961 152.193 13.3264C152.707 12.9361 153.2 12.7409 153.672 12.7409C153.898 12.7409 154.114 12.8128 154.319 12.9566C154.545 13.1004 154.792 13.3366 155.059 13.6653C155.285 13.9529 155.449 14.2096 155.552 14.4356C155.654 14.6615 155.706 14.9183 155.706 15.2059V15.4832C156.075 14.7026 156.63 14.0556 157.369 13.542C158.13 13.008 159.126 12.7409 160.358 12.7409Z" fill="#E2E7E9"/>
<path d="M178.421 22.3542C179.098 22.3542 179.591 22.4877 179.9 22.7547C180.208 23.0218 180.362 23.4531 180.362 24.0488C180.362 25.4045 179.93 26.4932 179.068 27.3149C178.205 28.1365 177.116 28.5473 175.802 28.5473C174.015 28.5473 172.71 27.8284 171.889 26.3905C171.067 24.9321 170.656 22.6315 170.656 19.4887C170.656 18.5438 170.666 17.8557 170.687 17.4243C170.543 17.4038 170.307 17.3935 169.978 17.3935C168.807 17.373 168.222 16.8081 168.222 15.6989C168.222 15.1237 168.366 14.6923 168.653 14.4048C168.961 14.1172 169.495 13.9837 170.256 14.0042L170.933 14.035C171.077 12.7615 171.313 11.2004 171.642 9.35165C171.724 8.85867 171.95 8.48893 172.32 8.24243C172.71 7.9754 173.203 7.84188 173.799 7.84188C174.497 7.84188 175.042 8.00621 175.432 8.33487C175.822 8.66353 176.017 9.06408 176.017 9.53652L175.986 9.78301L175.832 10.769C175.586 12.4534 175.422 13.6037 175.339 14.2199C176.038 14.261 176.572 14.2815 176.942 14.2815C177.989 14.3021 178.513 14.8464 178.513 15.9145C178.513 16.4486 178.369 16.8492 178.082 17.1162C177.794 17.3832 177.311 17.5167 176.634 17.5167H175.093C175.072 17.9276 175.062 18.5849 175.062 19.4887C175.062 21.0087 175.093 22.1796 175.155 23.0012C175.237 23.8023 175.35 24.3467 175.493 24.6342C175.637 24.9218 175.822 25.0656 176.048 25.0656C176.336 25.0656 176.521 24.9732 176.603 24.7883C176.685 24.6034 176.726 24.2748 176.726 23.8023C176.726 22.8369 177.291 22.3542 178.421 22.3542Z" fill="#E2E7E9"/>
<path d="M190.725 28.5781C188.116 28.5781 186.041 27.9003 184.501 26.5446C182.981 25.1683 182.221 23.2477 182.221 20.7828C182.221 19.1806 182.56 17.753 183.238 16.5C183.915 15.247 184.871 14.2712 186.103 13.5729C187.356 12.8745 188.825 12.5253 190.509 12.5253C192.214 12.5253 193.714 12.8847 195.008 13.6037C196.302 14.3226 197.298 15.3291 197.996 16.6232C198.715 17.8968 199.075 19.3552 199.075 20.9985C199.075 23.4018 198.325 25.271 196.826 26.6062C195.326 27.9208 193.292 28.5781 190.725 28.5781ZM190.663 25.158C191.916 25.158 192.882 24.8088 193.559 24.1104C194.258 23.3915 194.607 22.3336 194.607 20.9368C194.607 19.5606 194.268 18.3897 193.59 17.4243C192.933 16.4383 191.957 15.9453 190.663 15.9453C189.451 15.9453 188.486 16.387 187.767 17.2703C187.048 18.1535 186.688 19.3346 186.688 20.8136C186.688 22.2515 187.038 23.3401 187.736 24.0796C188.434 24.7986 189.41 25.158 190.663 25.158Z" fill="#E2E7E9"/>
<path d="M207.746 28.763C206.329 28.763 205.065 28.4343 203.956 27.777C202.847 27.0992 202.056 26.2056 201.584 25.0964C201.46 24.7883 201.399 24.5315 201.399 24.3261C201.399 23.8948 201.625 23.4839 202.077 23.0937C202.528 22.7034 203.021 22.5082 203.555 22.5082C203.864 22.5082 204.11 22.5801 204.295 22.7239C204.48 22.8472 204.624 22.9704 204.726 23.0937C204.829 23.1964 204.891 23.2683 204.911 23.3093C205.507 24.0077 206 24.5007 206.39 24.7883C206.78 25.0759 207.253 25.2197 207.807 25.2197C208.321 25.2197 208.763 25.117 209.132 24.9115C209.502 24.6856 209.687 24.3775 209.687 23.9872C209.687 23.5558 209.471 23.2169 209.04 22.9704C208.609 22.7239 207.91 22.4466 206.945 22.1385C205.877 21.7688 205.004 21.4196 204.326 21.0909C203.668 20.7622 203.083 20.2795 202.569 19.6427C202.076 18.9854 201.83 18.1535 201.83 17.147C201.83 16.1405 202.118 15.2778 202.693 14.5588C203.268 13.8193 204.028 13.2545 204.973 12.8642C205.938 12.4739 206.976 12.2788 208.085 12.2788C209.276 12.2788 210.303 12.5047 211.166 12.9566C212.049 13.388 212.717 13.9734 213.169 14.7129C213.621 15.4318 213.847 16.2021 213.847 17.0238C213.847 17.5784 213.692 17.9995 213.384 18.287C213.076 18.5746 212.563 18.7184 211.844 18.7184C211.207 18.7184 210.765 18.6157 210.519 18.4103C210.293 18.2049 210.149 17.9173 210.088 17.5476C210.026 17.034 209.862 16.6232 209.595 16.3151C209.348 16.007 208.845 15.8529 208.085 15.8529C207.51 15.8529 207.058 15.9556 206.729 16.161C206.421 16.3664 206.267 16.654 206.267 17.0238C206.267 17.4757 206.483 17.8249 206.914 18.0714C207.366 18.3178 208.085 18.5849 209.071 18.8725C210.118 19.2011 210.981 19.5298 211.659 19.8584C212.337 20.1665 212.922 20.639 213.415 21.2758C213.908 21.892 214.155 22.7136 214.155 23.7407C214.155 24.9115 213.826 25.877 213.169 26.637C212.511 27.397 211.69 27.9414 210.704 28.27C209.718 28.5987 208.732 28.763 207.746 28.763Z" fill="#E2E7E9"/>
<path d="M126.249 53.9772C125.592 53.9772 125.048 53.8129 124.616 53.4842C124.185 53.1556 123.979 52.7139 124 52.1593L124.247 40.7898C124.267 40.2352 124.483 39.8038 124.894 39.4957C125.304 39.1671 125.838 39.0027 126.496 39.0027C127.174 39.0027 127.728 39.1671 128.16 39.4957C128.591 39.8244 128.796 40.2763 128.776 40.8514L128.529 52.1901C128.509 52.7448 128.283 53.1864 127.851 53.515C127.441 53.8232 126.907 53.9772 126.249 53.9772Z" fill="#E2E7E9"/>
<path d="M142.699 48.0306C143.377 48.0306 143.87 48.1641 144.178 48.4311C144.486 48.6981 144.64 49.1295 144.64 49.7252C144.64 51.0809 144.209 52.1696 143.346 52.9912C142.484 53.8129 141.395 54.2237 140.08 54.2237C138.293 54.2237 136.989 53.5048 136.167 52.0669C135.346 50.6085 134.935 48.3079 134.935 45.1651C134.935 44.2202 134.945 43.5321 134.966 43.1007C134.822 43.0802 134.586 43.0699 134.257 43.0699C133.086 43.0493 132.501 42.4845 132.501 41.3752C132.501 40.8001 132.644 40.3687 132.932 40.0812C133.24 39.7936 133.774 39.6601 134.534 39.6806L135.212 39.7114C135.356 38.4379 135.592 36.8767 135.921 35.028C136.003 34.5351 136.229 34.1653 136.599 33.9188C136.989 33.6518 137.482 33.5183 138.078 33.5183C138.776 33.5183 139.32 33.6826 139.711 34.0113C140.101 34.3399 140.296 34.7405 140.296 35.2129L140.265 35.4594L140.111 36.4454C139.865 38.1297 139.7 39.2801 139.618 39.8963C140.317 39.9374 140.851 39.9579 141.22 39.9579C142.268 39.9784 142.792 40.5228 142.792 41.5909C142.792 42.125 142.648 42.5255 142.36 42.7926C142.073 43.0596 141.59 43.1931 140.912 43.1931H139.372C139.351 43.604 139.341 44.2613 139.341 45.1651C139.341 46.6851 139.372 47.856 139.433 48.6776C139.515 49.4787 139.628 50.0231 139.772 50.3106C139.916 50.5982 140.101 50.742 140.327 50.742C140.614 50.742 140.799 50.6496 140.881 50.4647C140.964 50.2798 141.005 49.9512 141.005 49.4787C141.005 48.5133 141.57 48.0306 142.699 48.0306Z" fill="#E2E7E9"/>
<path d="M155.373 54.4702C153.504 54.4702 151.922 54.121 150.628 53.4226C149.355 52.7242 148.4 51.7588 147.763 50.5263C147.126 49.2938 146.808 47.897 146.808 46.3359C146.808 44.7748 147.167 43.3883 147.886 42.1763C148.626 40.9439 149.622 39.9887 150.875 39.3109C152.148 38.633 153.566 38.2941 155.127 38.2941C156.524 38.2941 157.797 38.5714 158.947 39.126C160.118 39.6806 161.032 40.4817 161.69 41.5293C162.368 42.5564 162.706 43.7683 162.706 45.1651C162.706 46.0483 162.542 46.6851 162.213 47.0754C161.905 47.4451 161.371 47.63 160.611 47.63H150.659C150.659 48.123 150.834 48.6263 151.183 49.1398C151.532 49.6328 152.056 50.0539 152.754 50.4031C153.453 50.7523 154.285 50.9269 155.25 50.9269C156.113 50.9269 156.791 50.8036 157.284 50.5571C157.777 50.2901 158.29 49.8998 158.824 49.3863C159.214 49.0371 159.615 48.8625 160.026 48.8625C160.498 48.8625 160.94 49.0473 161.351 49.4171C161.762 49.7663 161.967 50.1668 161.967 50.6187C161.967 50.9885 161.844 51.348 161.597 51.6971C161.166 52.375 160.437 53.0118 159.41 53.6075C158.383 54.1826 157.037 54.4702 155.373 54.4702ZM158.639 44.857C158.824 44.857 158.937 44.8262 158.978 44.7645C159.04 44.7029 159.071 44.5899 159.071 44.4256C159.071 43.6245 158.68 42.9569 157.9 42.4228C157.14 41.8888 156.195 41.6217 155.065 41.6217C154.161 41.6217 153.371 41.7963 152.693 42.1455C152.035 42.4947 151.532 42.9261 151.183 43.4396C150.834 43.9326 150.659 44.4051 150.659 44.857H158.639Z" fill="#E2E7E9"/>
<path d="M174.313 38.1708C175.135 38.1708 175.895 38.366 176.593 38.7563C177.292 39.126 177.846 39.6601 178.257 40.3585C178.668 41.0569 178.873 41.8682 178.873 42.7926C178.873 44.1278 178.432 45.1651 177.549 45.9046C176.686 46.6235 175.566 46.983 174.19 46.983C173.471 46.983 172.968 46.8803 172.68 46.6748C172.393 46.4489 172.249 46.0792 172.249 45.5656C172.249 45.0726 172.352 44.7337 172.557 44.5488C172.762 44.3434 173.05 44.2202 173.42 44.1791C174.632 44.0559 175.238 43.5526 175.238 42.6693C175.238 42.2996 175.145 42.0223 174.96 41.8374C174.796 41.632 174.56 41.5293 174.252 41.5293C173.697 41.5293 173.184 41.8477 172.711 42.4845C172.239 43.1007 171.848 43.8299 171.54 44.6721C171.232 45.4937 171.037 46.1921 170.955 46.7673C170.811 47.6711 170.739 49.2733 170.739 51.5739C170.739 52.6831 170.575 53.4431 170.246 53.854C169.938 54.2442 169.383 54.4394 168.582 54.4394C167.843 54.4394 167.278 54.2956 166.888 54.008C166.518 53.7205 166.323 53.2788 166.302 52.6831V47.6916C166.302 46.377 166.271 45.2678 166.21 44.364C166.148 43.4396 166.046 42.2585 165.902 40.8206L165.778 39.5574C165.737 39.0438 165.902 38.6227 166.271 38.2941C166.662 37.9654 167.196 37.8011 167.874 37.8011C169.024 37.8011 169.64 38.3146 169.722 39.3417C169.763 39.8347 169.805 40.5331 169.846 41.4369C170.256 40.4714 170.832 39.6909 171.571 39.0952C172.331 38.4789 173.245 38.1708 174.313 38.1708Z" fill="#E2E7E9"/>
<path d="M196.451 50.742C196.841 50.8036 197.139 50.9474 197.345 51.1734C197.57 51.3993 197.683 51.7999 197.683 52.375C197.683 52.868 197.55 53.2891 197.283 53.6383C197.036 53.9875 196.697 54.1621 196.266 54.1621C195.383 54.1621 194.705 54.0594 194.233 53.854C193.76 53.628 193.329 53.2275 192.938 52.6523C192.487 53.3302 191.87 53.8129 191.09 54.1005C190.309 54.3675 189.395 54.501 188.348 54.501C186.026 54.501 184.26 53.8334 183.048 52.4983C181.836 51.1631 181.23 49.3041 181.23 46.9213C181.23 45.3602 181.548 43.9737 182.185 42.7618C182.822 41.5498 183.705 40.605 184.835 39.9271C185.985 39.2492 187.3 38.9103 188.779 38.9103C189.518 38.9103 190.207 39.0541 190.843 39.3417C191.48 39.6292 191.963 40.0093 192.291 40.4817L192.353 40.0812C192.394 39.7936 192.558 39.5574 192.846 39.3725C193.134 39.1671 193.586 39.0644 194.202 39.0644C194.859 39.0644 195.342 39.1979 195.65 39.4649C195.958 39.732 196.112 40.0709 196.112 40.4817C196.112 40.6255 196.102 40.7385 196.081 40.8206C195.958 41.519 195.835 42.6899 195.712 44.3332C195.65 45.0932 195.619 46.0689 195.619 47.2603V48.8009C195.619 49.3965 195.67 49.8587 195.773 50.1874C195.876 50.4955 196.102 50.6804 196.451 50.742ZM191.305 48.616C191.326 47.7738 191.336 46.4694 191.336 44.7029C191.336 44.0045 191.1 43.4396 190.628 43.0083C190.176 42.5564 189.59 42.3304 188.871 42.3304C187.947 42.3304 187.187 42.7618 186.591 43.6245C185.996 44.4667 185.698 45.5554 185.698 46.8905C185.698 48.1641 185.965 49.1809 186.499 49.9409C187.033 50.7009 187.752 51.0809 188.656 51.0809C189.498 51.0809 190.145 50.8755 190.597 50.4647C191.049 50.0333 191.285 49.4171 191.305 48.616ZM187.516 37.2157C187.084 37.2157 186.725 37.0719 186.437 36.7843C186.15 36.4762 186.006 36.1064 186.006 35.6751C186.006 35.4286 186.057 35.1718 186.16 34.9048C186.263 34.6378 186.406 34.4221 186.591 34.2577L189.457 31.6388C189.847 31.269 190.155 31.0123 190.381 30.8685C190.628 30.7247 190.895 30.6528 191.182 30.6528C191.634 30.6528 192.014 30.8068 192.322 31.115C192.63 31.4231 192.784 31.8134 192.784 32.2858C192.784 32.5939 192.713 32.8815 192.569 33.1485C192.445 33.4156 192.281 33.6415 192.076 33.8264L188.995 36.4762C188.707 36.7432 188.45 36.9384 188.224 37.0616C187.998 37.1643 187.762 37.2157 187.516 37.2157Z" fill="#E2E7E9"/>
<path d="M209.307 38.1708C210.129 38.1708 210.889 38.366 211.587 38.7563C212.286 39.126 212.84 39.6601 213.251 40.3585C213.662 41.0569 213.868 41.8682 213.868 42.7926C213.868 44.1278 213.426 45.1651 212.543 45.9046C211.68 46.6235 210.56 46.983 209.184 46.983C208.465 46.983 207.962 46.8803 207.674 46.6748C207.387 46.4489 207.243 46.0792 207.243 45.5656C207.243 45.0726 207.346 44.7337 207.551 44.5488C207.757 44.3434 208.044 44.2202 208.414 44.1791C209.626 44.0559 210.232 43.5526 210.232 42.6693C210.232 42.2996 210.139 42.0223 209.954 41.8374C209.79 41.632 209.554 41.5293 209.246 41.5293C208.691 41.5293 208.178 41.8477 207.705 42.4845C207.233 43.1007 206.842 43.8299 206.534 44.6721C206.226 45.4937 206.031 46.1921 205.949 46.7673C205.805 47.6711 205.733 49.2733 205.733 51.5739C205.733 52.6831 205.569 53.4431 205.24 53.854C204.932 54.2442 204.378 54.4394 203.576 54.4394C202.837 54.4394 202.272 54.2956 201.882 54.008C201.512 53.7205 201.317 53.2788 201.296 52.6831V47.6916C201.296 46.377 201.266 45.2678 201.204 44.364C201.142 43.4396 201.04 42.2585 200.896 40.8206L200.773 39.5574C200.731 39.0438 200.896 38.6227 201.266 38.2941C201.656 37.9654 202.19 37.8011 202.868 37.8011C204.018 37.8011 204.634 38.3146 204.716 39.3417C204.758 39.8347 204.799 40.5331 204.84 41.4369C205.251 40.4714 205.826 39.6909 206.565 39.0952C207.325 38.4789 208.239 38.1708 209.307 38.1708Z" fill="#E2E7E9"/>
<path d="M219.767 53.9772C219.11 53.9772 218.566 53.8129 218.134 53.4842C217.703 53.1556 217.498 52.7139 217.518 52.1593L217.765 40.7898C217.785 40.2352 218.001 39.8038 218.412 39.4957C218.823 39.1671 219.357 39.0027 220.014 39.0027C220.692 39.0027 221.246 39.1671 221.678 39.4957C222.109 39.8244 222.315 40.2763 222.294 40.8514L222.048 52.1901C222.027 52.7448 221.801 53.1864 221.37 53.515C220.959 53.8232 220.425 53.9772 219.767 53.9772Z" fill="#E2E7E9"/>
<path d="M234.831 54.2545C232.222 54.2545 230.148 53.5767 228.607 52.2209C227.087 50.8447 226.327 48.9241 226.327 46.4592C226.327 44.857 226.666 43.4294 227.344 42.1763C228.022 40.9233 228.977 39.9476 230.209 39.2492C231.462 38.5508 232.931 38.2016 234.615 38.2016C236.32 38.2016 237.82 38.5611 239.114 39.28C240.408 39.999 241.404 41.0055 242.103 42.2996C242.822 43.5731 243.181 45.0316 243.181 46.6748C243.181 49.0782 242.431 50.9474 240.932 52.2826C239.432 53.5972 237.399 54.2545 234.831 54.2545ZM234.769 50.8344C236.022 50.8344 236.988 50.4852 237.666 49.7868C238.364 49.0679 238.713 48.01 238.713 46.6132C238.713 45.237 238.374 44.0661 237.697 43.1007C237.039 42.1147 236.063 41.6217 234.769 41.6217C233.557 41.6217 232.592 42.0634 231.873 42.9466C231.154 43.8299 230.795 45.011 230.795 46.49C230.795 47.9279 231.144 49.0165 231.842 49.756C232.541 50.475 233.516 50.8344 234.769 50.8344Z" fill="#E2E7E9"/>
<path d="M251.852 54.4394C250.435 54.4394 249.171 54.1107 248.062 53.4534C246.953 52.7756 246.162 51.882 245.69 50.7728C245.566 50.4647 245.505 50.2079 245.505 50.0025C245.505 49.5711 245.731 49.1603 246.183 48.77C246.635 48.3798 247.128 48.1846 247.662 48.1846C247.97 48.1846 248.216 48.2565 248.401 48.4003C248.586 48.5236 248.73 48.6468 248.833 48.77C248.935 48.8728 248.997 48.9446 249.017 48.9857C249.613 49.6841 250.106 50.1771 250.496 50.4647C250.887 50.7523 251.359 50.896 251.914 50.896C252.427 50.896 252.869 50.7933 253.239 50.5879C253.608 50.362 253.793 50.0539 253.793 49.6636C253.793 49.2322 253.578 48.8933 253.146 48.6468C252.715 48.4003 252.016 48.123 251.051 47.8149C249.983 47.4451 249.11 47.0959 248.432 46.7673C247.775 46.4386 247.189 45.9559 246.676 45.3191C246.183 44.6618 245.936 43.8299 245.936 42.8234C245.936 41.8169 246.224 40.9541 246.799 40.2352C247.374 39.4957 248.134 38.9309 249.079 38.5406C250.044 38.1503 251.082 37.9551 252.191 37.9551C253.382 37.9551 254.409 38.1811 255.272 38.633C256.155 39.0644 256.823 39.6498 257.275 40.3893C257.727 41.1082 257.953 41.8785 257.953 42.7001C257.953 43.2548 257.799 43.6758 257.491 43.9634C257.183 44.251 256.669 44.3948 255.95 44.3948C255.313 44.3948 254.872 44.2921 254.625 44.0867C254.399 43.8813 254.255 43.5937 254.194 43.2239C254.132 42.7104 253.968 42.2996 253.701 41.9915C253.454 41.6834 252.951 41.5293 252.191 41.5293C251.616 41.5293 251.164 41.632 250.835 41.8374C250.527 42.0428 250.373 42.3304 250.373 42.7001C250.373 43.152 250.589 43.5012 251.02 43.7477C251.472 43.9942 252.191 44.2613 253.177 44.5488C254.225 44.8775 255.087 45.2062 255.765 45.5348C256.443 45.8429 257.028 46.3154 257.521 46.9522C258.014 47.5684 258.261 48.39 258.261 49.4171C258.261 50.5879 257.932 51.5534 257.275 52.3134C256.618 53.0734 255.796 53.6177 254.81 53.9464C253.824 54.2751 252.838 54.4394 251.852 54.4394Z" fill="#E2E7E9"/>
<path d="M105.324 12.7409C107.132 12.7409 108.529 13.3777 109.515 14.6513C110.521 15.9043 111.025 17.7632 111.025 20.2282C111.025 20.2282 110.762 27.2175 110.691 28.4857C110.621 29.7538 109.886 41.3239 109.886 41.3239C109.763 43.5705 109.763 44.9699 109.763 46.9213C109.763 47.9279 109.804 48.6673 109.886 49.1398C109.989 49.6122 110.173 49.9409 110.44 50.1258C110.728 50.3106 111.17 50.4031 111.765 50.4031C113.039 50.4031 115.237 50.1155 118.359 49.5403C118.462 49.5198 118.606 49.5095 118.79 49.5095C119.325 49.5095 119.746 49.7149 120.054 50.1258C120.382 50.516 120.547 50.9782 120.547 51.5123C120.547 52.601 119.756 53.2891 118.174 53.5767C116.757 53.8437 115.678 54.0286 114.939 54.1313C114.22 54.2134 113.306 54.2545 112.197 54.2545C110.184 54.2545 108.705 54.0388 107.76 53.6075C106.836 53.1761 106.219 52.4572 105.911 51.4507C105.603 50.4441 105.449 48.8933 105.449 46.7981C105.449 44.4359 105.552 42.2688 105.757 40.2968C105.983 38.3249 106.254 31.9546 106.547 27.813C106.84 23.6713 106.557 20.1974 106.557 20.1974C106.557 18.6979 106.393 17.6503 106.064 17.0546C105.735 16.4589 105.222 16.161 104.523 16.161C103.928 16.161 103.455 16.4281 103.106 16.9621C102.757 17.4962 102.459 18.5335 102.213 20.0741C102.069 20.9368 101.997 21.892 101.997 22.9396L102.028 26.9143C102.028 27.4484 101.822 27.8592 101.411 28.1468C101.021 28.4138 100.487 28.5473 99.8092 28.5473C99.1108 28.5473 98.5562 28.4035 98.1454 28.116C97.7551 27.8284 97.5599 27.4278 97.5599 26.9143C97.5599 22.6418 97.4983 19.3141 97.3751 16.9313C97.3545 16.6848 97.2929 16.4589 97.1902 16.2535C97.108 16.0275 97.0053 15.8221 96.8821 15.6372C96.7588 15.4524 96.6664 15.3086 96.6048 15.2059C96.4815 14.9799 96.4199 14.754 96.4199 14.528C96.4199 14.0966 96.6664 13.6961 97.1594 13.3264C97.6729 12.9361 98.1659 12.7409 98.6384 12.7409C98.8643 12.7409 99.08 12.8128 99.2854 12.9566C99.5114 13.1004 99.7578 13.3366 100.025 13.6653C100.251 13.9529 100.415 14.2096 100.518 14.4356C100.621 14.6615 100.672 14.9183 100.672 15.2059V15.4832C101.042 14.7026 101.596 14.0556 102.336 13.542C103.096 13.008 104.092 12.7409 105.324 12.7409Z" fill="#E2E7E9"/>
<path d="M123.391 34.5714C123.413 34.7133 123.467 34.8482 123.549 34.9655C123.659 35.1206 123.815 35.2376 123.994 35.3004L124.883 35.5906C125.065 35.6491 125.23 35.7501 125.367 35.8866C125.502 36.0219 125.604 36.1871 125.666 36.3706L125.95 37.2458C126.01 37.4289 126.126 37.5884 126.281 37.7019C126.437 37.8154 126.625 37.877 126.817 37.878C127.01 37.879 127.198 37.8194 127.355 37.7076C127.512 37.5958 127.63 37.4374 127.692 37.255L127.981 36.3683C128.043 36.1898 128.146 36.028 128.281 35.8957C128.416 35.7634 128.58 35.6641 128.76 35.6055L129.634 35.3222C129.818 35.2626 129.977 35.1468 130.091 34.9913C130.205 34.8358 130.267 34.6484 130.268 34.4558C130.269 34.2631 130.21 34.075 130.098 33.918C129.986 33.761 129.828 33.6431 129.646 33.581L128.759 33.292C128.578 33.2308 128.413 33.1285 128.278 32.9932C128.143 32.8579 128.042 32.6932 127.981 32.512L127.694 31.6357C127.636 31.4512 127.522 31.2895 127.367 31.1737C127.212 31.058 127.025 30.9941 126.831 30.9912C126.638 30.9883 126.449 31.0464 126.29 31.1574C126.132 31.2684 126.013 31.4266 125.95 31.6093L125.661 32.4948C125.601 32.676 125.5 32.8412 125.362 32.9766C125.226 33.1112 125.062 33.2132 124.88 33.2748L124.006 33.5593C123.87 33.6058 123.747 33.6832 123.647 33.7854C123.546 33.8877 123.471 34.0119 123.426 34.1483C123.382 34.2848 123.37 34.4296 123.391 34.5714Z" fill="#E2E7E9"/>
<path d="M216.949 34.5714C216.971 34.7132 217.025 34.8482 217.107 34.9655C217.218 35.1205 217.373 35.2376 217.553 35.3004L218.441 35.5906C218.623 35.6491 218.788 35.7501 218.925 35.8865C219.06 36.0219 219.163 36.1871 219.224 36.3706L219.508 37.2458C219.568 37.4288 219.684 37.5884 219.84 37.7019C219.995 37.8154 220.183 37.877 220.376 37.878C220.568 37.879 220.756 37.8194 220.913 37.7076C221.07 37.5957 221.188 37.4374 221.25 37.2549L221.539 36.3683C221.601 36.1898 221.704 36.028 221.839 35.8957C221.974 35.7634 222.138 35.6641 222.318 35.6055L223.192 35.3222C223.376 35.2626 223.535 35.1468 223.649 34.9912C223.763 34.8357 223.825 34.6484 223.826 34.4558C223.827 34.2631 223.768 34.075 223.656 33.918C223.545 33.761 223.386 33.6431 223.204 33.581L222.317 33.292C222.136 33.2308 221.971 33.1285 221.836 32.9932C221.701 32.8579 221.6 32.6932 221.539 32.512L221.252 31.6357C221.195 31.4511 221.08 31.2895 220.925 31.1737C220.77 31.058 220.583 30.9941 220.39 30.9912C220.196 30.9882 220.007 31.0464 219.849 31.1574C219.69 31.2684 219.571 31.4266 219.508 31.6093L219.219 32.4948C219.159 32.676 219.058 32.8412 218.92 32.9766C218.784 33.1112 218.62 33.2132 218.438 33.2748L217.564 33.5592C217.428 33.6057 217.305 33.6832 217.205 33.7854C217.104 33.8877 217.029 34.0119 216.984 34.1483C216.94 34.2847 216.928 34.4296 216.949 34.5714Z" fill="#E2E7E9"/>
<path fill-rule="evenodd" clip-rule="evenodd" d="M33.2743 38.4747C27.659 39.9852 23.151 41.009 17.0668 42.1559C15.0124 42.5432 13.3088 42.8906 13.2811 42.9278C13.2533 42.965 13.0597 43.9017 12.8506 45.0089C12.6416 46.1162 12.239 47.5908 11.9557 48.2853L11.4407 49.5484L9.36724 49.7798C7.01371 50.0425 6.48757 50.3199 6.01944 51.5456C5.51228 52.8732 5.69439 54.1083 6.5572 55.1916C6.86067 55.5727 7.16674 55.7118 7.83429 55.7712C8.31711 55.8144 14.7034 55.2385 22.0262 54.4917L35.3403 53.134L35.6464 53.6955C37.2268 56.5958 39.3171 58.3354 42.1468 59.1057C43.2235 59.3988 46.5892 59.3978 47.6684 59.1043C50.4922 58.3358 52.5843 56.5937 54.1637 53.6955L54.4697 53.134L67.7838 54.4917C75.1066 55.2385 81.4929 55.8144 81.9757 55.7712C82.6411 55.712 82.9515 55.5717 83.258 55.1916C84.3833 53.7969 84.3019 51.6212 83.0823 50.4982C82.6592 50.1085 82.2458 49.9894 80.7614 49.829C79.7682 49.7216 78.8829 49.6013 78.7941 49.5616C78.463 49.4135 77.6246 46.9116 77.2613 44.9873C77.0546 43.8918 76.8642 42.9671 76.8382 42.9321C76.8122 42.8972 74.8677 42.501 72.5169 42.0518C67.9199 41.1736 63.6915 40.2299 59.0608 39.0491C56.3288 38.3525 56.0145 38.3134 53.8576 38.4029C52.113 38.4755 51.2875 38.6059 50.4184 38.9463C48.825 39.5703 47.0965 40.8305 45.9932 42.1721L45.058 43.3098L44.1016 42.1431C43.0612 40.8741 41.0259 39.4241 39.4722 38.8449C38.5611 38.5053 34.142 38.2414 33.2743 38.4747ZM37.9407 41.9438C38.838 42.1541 39.7057 42.5269 40.4836 43.0134C41.6935 43.7701 43.113 45.1262 43.6099 46.6405C43.7941 47.2018 46.2744 47.3719 46.5947 46.6405C47.0574 45.2607 48.0739 44.0302 49.5493 43.0868C51.2932 41.9716 52.1598 41.7345 54.3932 41.7612C55.9554 41.7799 56.8955 41.9379 59.5199 42.6228C63.5858 43.6837 66.4443 44.3244 70.6915 45.1267C72.5432 45.4764 74.2225 45.8318 74.4233 45.9165C74.7079 46.0364 74.8796 46.4186 75.2044 47.6551C75.5632 49.0215 75.5865 49.2399 75.373 49.2399C75.237 49.2399 70.0725 48.7321 63.8966 48.1115C52.6778 46.9842 52.667 46.9836 52.0141 47.3719C51.4399 47.7131 51.2949 47.9464 50.8203 49.2905C49.764 52.2819 48.1794 53.3796 44.9093 53.3851C41.7529 53.3905 39.9894 52.2296 39.0869 49.5521C38.637 48.2175 38.1858 47.5404 37.5209 47.2018C37.2067 47.0418 34.26 47.273 25.8923 48.1138C19.7279 48.7331 14.6344 49.2399 14.5732 49.2399C14.5118 49.2399 14.5885 48.8429 14.7432 48.3575C14.8979 47.8723 15.0741 47.1726 15.1345 46.8026C15.2025 46.3871 15.3707 46.0667 15.5747 45.9645C15.7562 45.8733 17.0411 45.5926 18.4299 45.3406C21.7908 44.7306 26.7337 43.6397 30.2136 42.7396C34.8425 41.5424 35.8049 41.4432 37.9407 41.9438Z" fill="#E2E7E9"/>
<path fill-rule="evenodd" clip-rule="evenodd" d="M29.6251 39.4263C30.8058 39.1291 32.0122 38.8141 33.2743 38.4747C34.142 38.2414 38.5611 38.5053 39.4722 38.8449C41.0259 39.4241 43.0612 40.8741 44.1016 42.1431L45.058 43.3098L45.9932 42.1721C47.0965 40.8305 48.825 39.5703 50.4184 38.9463C51.2875 38.6059 52.113 38.4755 53.8576 38.4029C56.0145 38.3134 56.3288 38.3525 59.0608 39.0491C59.6471 39.1986 60.2267 39.3443 60.8017 39.4866C60.6708 38.7861 60.4578 38.1015 60.166 37.4471C59.6418 36.2718 58.8747 35.2208 57.9153 34.3631C57.7311 32.9777 57.3216 31.6317 56.703 30.3785C58.4374 26.9453 59.7036 23.295 60.4679 19.5253C61.0191 16.665 61.3816 12.7665 59.9753 10.4391C59.6529 9.86587 59.181 9.39092 58.6099 9.06489C58.0388 8.73885 57.3898 8.57395 56.7323 8.58778C52.1838 8.58778 49.3784 16.4471 47.7725 23.4989C46.0812 23.1505 44.3366 23.1505 42.6453 23.4989C41.0394 16.4471 38.234 8.58778 33.6855 8.58778C33.0285 8.57341 32.38 8.73748 31.8089 9.06252C31.2378 9.38756 30.7656 9.8614 30.4425 10.4336C29.0343 12.761 29.4006 16.6595 29.9499 19.5198C30.7137 23.2914 31.9799 26.9435 33.7148 30.3785C33.0956 31.6334 32.6861 32.9813 32.5025 34.3686C31.5852 35.1898 30.843 36.1875 30.3202 37.3022C30.0018 37.9808 29.7689 38.6943 29.6251 39.4263ZM41.6042 37.8049C41.8054 37.5037 41.9128 37.1497 41.9128 36.7875C41.9128 36.3019 41.7199 35.8361 41.3765 35.4927C41.0331 35.1493 40.5673 34.9564 40.0817 34.9564C39.7195 34.9564 39.3655 35.0638 39.0643 35.265C38.7632 35.4662 38.5285 35.7522 38.3899 36.0868C38.2513 36.4214 38.2151 36.7896 38.2857 37.1448C38.3564 37.5 38.5308 37.8263 38.7869 38.0823C39.043 38.3384 39.3692 38.5128 39.7244 38.5835C40.0796 38.6541 40.4478 38.6179 40.7824 38.4793C41.117 38.3407 41.403 38.106 41.6042 37.8049ZM49.3188 35.265C49.6199 35.0638 49.974 34.9564 50.3361 34.9564C50.8218 34.9564 51.2875 35.1493 51.631 35.4927C51.9744 35.8361 52.1673 36.3019 52.1673 36.7875C52.1673 37.1497 52.0599 37.5037 51.8587 37.8049C51.6575 38.106 51.3715 38.3407 51.0369 38.4793C50.7023 38.6179 50.3341 38.6541 49.9789 38.5835C49.6237 38.5128 49.2974 38.3384 49.0413 38.0823C48.7852 37.8263 48.6108 37.5 48.5402 37.1448C48.4695 36.7896 48.5058 36.4214 48.6444 36.0868C48.783 35.7522 49.0177 35.4662 49.3188 35.265Z" fill="#E2E7E9"/>
<path d="M7.07436 23.87C6.95193 23.6966 6.88644 23.4895 6.88697 23.2772C6.8875 23.065 6.95402 22.8582 7.07731 22.6855C7.20522 22.5104 7.38234 22.3775 7.587 22.3047L8.93796 21.865C9.27658 21.7521 9.58432 21.5621 9.83688 21.3099C10.0894 21.0578 10.2799 20.7503 10.3932 20.4119L10.836 19.0435C10.9093 18.8411 11.0442 18.6669 11.2217 18.5453C11.3993 18.4237 11.6105 18.3608 11.8257 18.3656C12.0408 18.3704 12.2491 18.4426 12.421 18.5719C12.593 18.7013 12.72 18.8814 12.7842 19.0867L13.225 20.4395C13.3378 20.7782 13.5278 21.0861 13.78 21.3388C14.0322 21.5915 14.3398 21.7821 14.6783 21.8955L16.0441 22.3402C16.2453 22.4118 16.4191 22.5443 16.5415 22.7193C16.6639 22.8943 16.7287 23.1031 16.7268 23.3166C16.725 23.5302 16.6566 23.7378 16.5312 23.9107C16.4059 24.0835 16.2297 24.2131 16.0273 24.2812L14.6498 24.7308C14.3203 24.8436 14.0207 25.0298 13.7736 25.2752C13.5265 25.5205 13.3382 25.8188 13.2231 26.1474L12.7832 27.5149C12.7115 27.716 12.5789 27.8898 12.4038 28.0121C12.2288 28.1344 12.02 28.1992 11.8065 28.1974C11.593 28.1957 11.3853 28.1276 11.2122 28.0024C11.0392 27.8773 10.9094 27.7014 10.8409 27.4992L10.4031 26.1474C10.2901 25.807 10.0987 25.4978 9.84443 25.2447C9.59014 24.9917 9.28 24.8018 8.93895 24.6904L7.57027 24.2458C7.36954 24.1749 7.19637 24.0431 7.07436 23.87Z" fill="#E2E7E9"/>
<path d="M80.3564 38.5663C80.3742 38.6845 80.4193 38.7969 80.4881 38.8947C80.5798 39.0239 80.7094 39.1214 80.8591 39.1738L81.5992 39.4156C81.7512 39.4644 81.8889 39.5485 82.0027 39.6623C82.1155 39.775 82.2006 39.9127 82.2523 40.0656L82.4885 40.7949C82.5384 40.9475 82.6351 41.0805 82.7649 41.1751C82.8946 41.2696 83.0509 41.321 83.2115 41.3218C83.3721 41.3227 83.5288 41.273 83.6596 41.1798C83.7904 41.0866 83.8885 40.9546 83.94 40.8026L84.181 40.0637C84.2329 39.9149 84.3185 39.7801 84.4311 39.6699C84.5438 39.5596 84.6804 39.4769 84.8303 39.4281L85.5589 39.192C85.7116 39.1423 85.8448 39.0458 85.9395 38.9162C86.0343 38.7866 86.0859 38.6305 86.0869 38.4699C86.088 38.3094 86.0385 38.1526 85.9454 38.0218C85.8524 37.891 85.7205 37.7927 85.5685 37.741L84.8293 37.5001C84.6784 37.4491 84.5414 37.3639 84.4289 37.2511C84.3164 37.1384 84.2316 37.0011 84.181 36.8501L83.9419 36.1199C83.894 35.9661 83.7987 35.8313 83.6696 35.7349C83.5405 35.6385 83.3843 35.5852 83.2232 35.5828C83.062 35.5803 82.9043 35.6288 82.7723 35.7213C82.6404 35.8138 82.541 35.9456 82.4885 36.0979L82.2475 36.8358C82.1978 36.9868 82.1136 37.1245 81.9989 37.2373C81.8856 37.3495 81.7483 37.4344 81.5973 37.4858L80.8686 37.7228C80.7555 37.7616 80.653 37.8261 80.5691 37.9113C80.4853 37.9965 80.4224 38.1001 80.3855 38.2137C80.3486 38.3274 80.3386 38.4481 80.3564 38.5663Z" fill="#E2E7E9"/>
</svg>
